<svg xmlns="http://www.w3.org/2000/svg" width="256" height="256" viewBox="0 0 100 100"><rect width="100" height="100" rx="20" fill="#0092ce"></rect><path fill="#ffffff" d="M28.38 44.78L28.38 44.78Q28.38 47.67 26.85 49.98Q25.32 52.28 22.72 53.63L22.72 53.63Q24.77 56.33 26.65 58.70Q28.52 61.08 29.42 62.53L29.42 62.53Q28.97 64.13 27.75 64.95Q26.52 65.78 25.07 65.78L25.07 65.78Q23.17 65.78 22.17 64.95Q21.17 64.13 20.27 62.68L20.27 62.68L15.47 55.23L12.02 55.23L12.02 65.28Q11.47 65.42 10.47 65.55Q9.47 65.67 8.37 65.67L8.37 65.67Q6.02 65.67 5.10 64.88Q4.17 64.08 4.17 61.98L4.17 61.98L4.17 37.73Q4.17 36.73 4.70 36.17Q5.22 35.63 6.22 35.33L6.22 35.33Q7.82 34.73 10.07 34.48Q12.32 34.23 14.77 34.23L14.77 34.23Q21.57 34.23 24.97 37.05Q28.38 39.88 28.38 44.78ZM11.92 49.17L15.02 49.17Q17.42 49.17 18.92 48.10Q20.42 47.03 20.42 44.83L20.42 44.83Q20.42 40.53 14.67 40.53L14.67 40.53Q13.87 40.53 13.22 40.60Q12.57 40.67 11.92 40.78L11.92 40.78L11.92 49.17ZM54.67 57.78L54.67 57.78Q54.08 58.28 53.13 58.58Q52.17 58.88 50.97 58.88L50.97 58.88Q49.38 58.88 48.30 58.48Q47.22 58.08 46.88 57.08L46.88 57.08Q45.27 52.43 44.15 49.35Q43.02 46.28 42.38 44.03L42.38 44.03L42.17 44.03Q42.02 47.13 41.92 49.70Q41.82 52.28 41.75 54.73Q41.67 57.18 41.57 59.68Q41.47 62.18 41.32 65.17L41.32 65.17Q40.77 65.38 39.85 65.55Q38.92 65.73 37.92 65.73L37.92 65.73Q35.97 65.73 34.88 65.05Q33.77 64.38 33.77 62.73L33.77 62.73Q33.77 61.78 33.85 60.10Q33.92 58.43 34.05 56.25Q34.17 54.08 34.35 51.58Q34.52 49.08 34.70 46.50Q34.88 43.92 35.02 41.40Q35.17 38.88 35.32 36.73L35.32 36.73Q35.72 36.17 36.95 35.50Q38.17 34.83 40.38 34.83L40.38 34.83Q42.72 34.83 44.07 35.58Q45.42 36.33 46.13 38.03L46.13 38.03Q46.67 39.38 47.27 41.05Q47.88 42.73 48.47 44.48Q49.08 46.23 49.65 47.95Q50.22 49.68 50.72 51.13L50.72 51.13L50.97 51.13Q52.38 46.73 53.77 42.60Q55.17 38.48 56.22 35.67L56.22 35.67Q56.92 35.33 58 35.08Q59.08 34.83 60.38 34.83L60.38 34.83Q62.63 34.83 63.98 35.48Q65.32 36.13 65.57 37.38L65.57 37.38Q65.78 38.38 66.03 40.42Q66.28 42.48 66.53 45.13Q66.78 47.78 67.03 50.70Q67.28 53.63 67.47 56.35Q67.67 59.08 67.82 61.33Q67.97 63.58 68.03 64.83L68.03 64.83Q67.28 65.28 66.42 65.50Q65.57 65.73 64.28 65.73L64.28 65.73Q62.63 65.73 61.45 65.13Q60.27 64.53 60.17 62.78L60.17 62.78Q59.83 56.98 59.70 52.15Q59.58 47.33 59.42 44.23L59.42 44.23L59.17 44.23Q58.58 46.33 57.45 49.53Q56.33 52.73 54.67 57.78ZM78.28 65.42L78.28 65.42Q76.38 65.42 75.25 64.30Q74.13 63.18 74.13 61.28L74.13 61.28L74.13 39.17Q74.13 37.28 75.25 36.15Q76.38 35.03 78.28 35.03L78.28 35.03L94.83 35.03Q95.13 35.53 95.38 36.28Q95.63 37.03 95.63 37.98L95.63 37.98Q95.63 39.63 94.90 40.42Q94.17 41.23 92.88 41.23L92.88 41.23L81.78 41.23L81.78 46.83L93.38 46.83Q93.67 47.33 93.92 48.08Q94.17 48.83 94.17 49.78L94.17 49.78Q94.17 51.43 93.47 52.20Q92.78 52.98 91.47 52.98L91.47 52.98L81.78 52.98L81.78 59.23L95.03 59.23Q95.33 59.73 95.58 60.53Q95.83 61.33 95.83 62.28L95.83 62.28Q95.83 63.93 95.10 64.67Q94.38 65.42 93.13 65.42L93.13 65.42L78.28 65.42Z"></path></svg>